<svg width="24" height="24" viewBox="0 0 24 24" fill="none" xmlns="http://www.w3.org/2000/svg">
<path d="M3.00606 3.32446H20.9815C21.1859 3.32446 21.3516 3.49017 21.3516 3.69458V17.0805C21.3516 17.2849 21.1859 17.4506 20.9815 17.4506H3.00606C2.80166 17.4506 2.63594 17.2849 2.63594 17.0805V3.69458C2.63594 3.49017 2.80166 3.32446 3.00606 3.32446V3.32446ZM20.6114 4.0647H3.37618V16.7104H20.6114V4.0647Z" fill="#A8B4B9" stroke="#A8B4B9" stroke-width="0.2"/>
<path d="M10.0723 17.3132C10.2008 17.1552 10.1769 16.9228 10.0188 16.7942C9.8607 16.6657 9.6283 16.6896 9.49976 16.8477C7.50409 19.3132 5.17497 22.3038 5.16823 22.3124C5.04287 22.4737 5.072 22.7061 5.23329 22.8315C5.39458 22.9568 5.62698 22.9277 5.75233 22.7664C5.75923 22.7575 8.14153 19.6985 10.0723 17.3133V17.3132ZM14.4882 16.8477C14.3596 16.6897 14.1272 16.6657 13.9691 16.7942C13.8111 16.9228 13.7871 17.1552 13.9157 17.3133C15.8464 19.6985 18.2287 22.7576 18.2356 22.7664C18.361 22.9277 18.5934 22.9568 18.7546 22.8315C18.9159 22.7061 18.9451 22.4737 18.8197 22.3124C18.813 22.3038 16.4838 19.3132 14.4882 16.8477V16.8477Z" fill="#A8B4B9" stroke="#A8B4B9" stroke-width="0.2"/>
<path d="M0.520113 16.7901C0.31571 16.7901 0.149994 16.9558 0.149994 17.1602C0.149994 17.3646 0.31571 17.5304 0.520113 17.5304H23.4675C23.6719 17.5304 23.8376 17.3646 23.8376 17.1602C23.8376 16.9558 23.6719 16.7901 23.4675 16.7901H0.520113V16.7901ZM12.404 2.45944C12.404 2.25503 12.2383 2.08932 12.0339 2.08932C11.8295 2.08932 11.6638 2.25503 11.6638 2.45944V3.69458C11.6638 3.89899 11.8295 4.0647 12.0339 4.0647C12.2383 4.0647 12.404 3.89899 12.404 3.69458V2.45944ZM5.21969 12.7903L7.06579 7.98487H7.75053L9.71746 12.7903H8.99245L8.4319 11.3347H6.42246L5.89547 12.7903H5.21969V12.7903ZM6.60595 10.8167H8.23611L7.73373 9.48636C7.58157 9.08246 7.46745 8.75017 7.39361 8.48946C7.33207 8.79827 7.24593 9.10371 7.13404 9.40804L6.60594 10.8167H6.60595ZM10.1986 12.7903V7.98487H12.0021C12.3691 7.98487 12.6634 8.0341 12.8849 8.13033C13.1076 8.22766 13.281 8.37759 13.4063 8.5801C13.5316 8.7815 13.5954 8.99295 13.5954 9.21449C13.5954 9.41923 13.5394 9.61279 13.4275 9.79405C13.3168 9.9753 13.1478 10.1219 12.9229 10.2338C13.2138 10.3188 13.4365 10.4642 13.5931 10.669C13.7498 10.8749 13.8281 11.1176 13.8281 11.3974C13.8281 11.6222 13.78 11.8315 13.6849 12.025C13.5898 12.2186 13.4723 12.3674 13.3324 12.4726C13.1926 12.5777 13.0169 12.6561 12.8066 12.7098C12.5962 12.7635 12.3378 12.7903 12.0312 12.7903H10.1986V12.7903ZM10.8352 10.0044H11.8746C12.1554 10.0044 12.3579 9.98537 12.481 9.94845C12.6421 9.90034 12.7641 9.82089 12.8457 9.70902C12.9274 9.59712 12.9688 9.45727 12.9688 9.28944C12.9688 9.13058 12.9308 8.9896 12.8547 8.86876C12.7775 8.74679 12.6678 8.66401 12.5269 8.61926C12.3848 8.5745 12.1409 8.55212 11.7952 8.55212H10.8352V10.0044L10.8352 10.0044ZM10.8352 12.2231H12.0312C12.2371 12.2231 12.3814 12.2152 12.4642 12.2007C12.6108 12.1738 12.7327 12.1302 12.8312 12.0687C12.9297 12.0082 13.0102 11.9187 13.074 11.8024C13.1367 11.6849 13.1691 11.5506 13.1691 11.3974C13.1691 11.2183 13.1232 11.0628 13.0315 10.9297C12.9397 10.7976 12.8122 10.7048 12.6488 10.6511C12.4866 10.5985 12.2516 10.5716 11.9462 10.5716H10.8352V12.2231V12.2231ZM18.1311 11.1053L18.7678 11.2665C18.6346 11.7878 18.3941 12.1861 18.0484 12.4614C17.7015 12.7355 17.2786 12.872 16.7773 12.872C16.2593 12.872 15.8386 12.7668 15.5142 12.5565C15.1897 12.345 14.9424 12.0396 14.7735 11.6401C14.6046 11.2396 14.5195 10.81 14.5195 10.3512C14.5195 9.85112 14.6146 9.41477 14.8059 9.04219C14.9973 8.66961 15.2692 8.38653 15.6227 8.19299C15.9751 7.99942 16.3634 7.90319 16.7874 7.90319C17.2685 7.90319 17.6724 8.02516 18.0003 8.27018C18.3281 8.5152 18.5563 8.85869 18.685 9.30288L18.0595 9.45056C17.9477 9.10037 17.7865 8.84638 17.574 8.68639C17.3625 8.52641 17.0962 8.44696 16.774 8.44696C16.4048 8.44696 16.0971 8.53535 15.8487 8.71212C15.6003 8.89003 15.4258 9.12722 15.3262 9.42595C15.2255 9.72356 15.1752 10.0312 15.1752 10.3479C15.1752 10.7574 15.2345 11.1132 15.3531 11.4186C15.4728 11.723 15.6574 11.9512 15.9091 12.1022C16.1609 12.2533 16.4328 12.3282 16.7259 12.3282C17.0817 12.3282 17.3827 12.2253 17.6299 12.0206C17.8772 11.8147 18.0439 11.5092 18.1312 11.1053L18.1311 11.1053Z" fill="#A8B4B9" stroke="#A8B4B9" stroke-width="0.2"/>
</svg>
