<svg width="24" height="22" viewBox="0 0 24 22" fill="none" xmlns="http://www.w3.org/2000/svg">
<path d="M22.875 20.9371H1.61588L4.22381 11.3746H4.91288C4.3875 12.2988 4.71225 13.2993 5.41182 13.8978L5.01431 15.3806C4.94213 15.6526 5.18813 15.9125 5.469 15.8411L8.00475 15.1955C8.079 15.1833 8.15044 15.1496 8.20782 15.0926L8.79694 14.5083C9.33525 15.1381 10.2336 15.4893 11.1759 15.1797C11.6404 15.9792 12.363 16.3516 13.1494 16.3516C13.8585 16.3516 14.5504 16.0083 14.97 15.4038C16.0037 15.5214 17.2774 14.8672 17.6327 14.4408C18.6504 14.8899 19.4861 15.4096 22.8703 15.4496C22.8718 15.4496 22.8733 15.4496 22.8746 15.4496C23.3678 15.4496 23.3719 14.7052 22.8789 14.6996C17.9034 14.6414 17.6389 13.1699 15.2393 12.6866C15.2385 12.6864 15.2376 12.6866 15.2368 12.6864C14.3438 12.5099 11.2538 12.7833 9.90994 12.6425C9.18413 12.4677 8.69607 11.7708 8.79019 11.0514C8.79038 11.0502 8.79019 11.0491 8.79019 11.048C8.88675 10.4587 9.26044 10.0584 9.46894 10.0062C9.46894 10.0062 12.9548 9.77055 18.1344 9.21012C18.6274 9.15668 18.5464 8.41324 18.0538 8.46443L14.5026 8.84862C16.2833 7.08237 17.1816 6.1893 17.3713 6.00105C19.1788 6.46418 22.8743 7.75399 22.8743 7.75399C23.2944 7.75399 23.3959 7.16037 22.9954 7.02387C21.5828 6.54199 19.9399 5.9148 17.9897 5.38756L20.5841 2.81412C20.7564 2.6418 20.7154 2.40255 20.5793 2.27693L18.6341 0.41618C18.4877 0.27518 18.2511 0.280993 18.1103 0.421618L14.4924 4.03043C13.6498 3.69087 12.4693 3.53787 12.117 3.53787C10.4509 3.53787 8.22713 7.91974 6.92175 9.47655C6.60882 9.84949 6.04538 10.1742 5.5425 10.6246H3.9375C3.76838 10.6246 3.62025 10.7379 3.57563 10.901L0.763127 21.2135C0.698065 21.4524 0.87844 21.6871 1.125 21.6871H22.875C23.3704 21.6871 23.3711 20.9371 22.875 20.9371ZM11.1664 14.3767C11.1662 14.3767 11.166 14.3769 11.1658 14.3771C11.1656 14.3772 11.1653 14.3772 11.1649 14.3774C10.5774 14.6808 9.82238 14.5655 9.35682 14.012L9.97632 13.3976C10.2191 13.4094 10.7404 13.4216 11.922 13.4341C11.8196 13.8352 11.5506 14.18 11.1664 14.3767ZM7.75557 14.4851L5.90438 14.9562L6.38944 13.1463L6.61388 12.9236L7.97475 14.2674L7.75557 14.4851ZM8.05032 11.5109C8.13544 12.1346 8.56425 12.8482 9.0555 13.1956L8.50725 13.7394L7.14638 12.3956C8.19863 11.3517 7.92394 11.618 8.05032 11.5109ZM11.8421 14.8332C12.2929 14.4924 12.5942 13.9968 12.6874 13.442L14.3211 13.4583C14.5059 13.8864 14.6687 14.3911 14.4563 14.8066C13.8733 15.8712 12.4348 15.8551 11.8421 14.8332ZM15.2906 14.6671C15.3489 14.2893 15.2584 13.8101 15.1318 13.4501C15.3763 13.4457 16.6307 13.9994 16.8771 14.1069C16.4458 14.4177 15.789 14.6448 15.2906 14.6671ZM18.3806 1.21118L19.7835 2.55274C15.8537 6.45087 17.2453 5.07274 13.3142 8.9718C12.8616 8.9943 11.4671 9.06687 10.4171 9.15143C11.4844 8.09262 9.78394 9.78668 18.3806 1.21118ZM7.49625 9.95843C8.60569 8.63562 11.0216 4.28787 12.117 4.28787C12.3988 4.28787 13.2302 4.40187 13.9056 4.61599C9.45375 9.05693 11.9271 6.5973 5.78963 12.6851C5.69531 12.7784 5.67638 12.9102 5.64244 13.037C5.46169 12.7781 5.29463 12.3804 5.48063 11.9167C5.80481 11.1084 6.90957 10.6586 7.49625 9.95843Z" fill="#A8B4B9" stroke="#A8B4B9" stroke-width="0.2"/>
</svg>
