<svg width="60" height="48" viewBox="0 0 60 48" fill="none" xmlns="http://www.w3.org/2000/svg">
<rect width="60" height="48" rx="8" fill="#FFBF3F"/>
<path d="M26.5 25.6L27.7 21.7667L24.5333 19.3H28.4L29.6667 15.3333L30.9 19.3H34.8L31.6333 21.7667L32.8 25.6L29.6667 23.2333L26.5 25.6ZM21.8 38V27.8667C20.8 26.8222 20.0833 25.6778 19.65 24.4333C19.2167 23.1889 19 21.9333 19 20.6667C19 17.6444 20.0222 15.1111 22.0667 13.0667C24.1111 11.0222 26.6444 10 29.6667 10C32.6889 10 35.2222 11.0222 37.2667 13.0667C39.3111 15.1111 40.3333 17.6444 40.3333 20.6667C40.3333 21.9333 40.1167 23.1889 39.6833 24.4333C39.25 25.6778 38.5333 26.8222 37.5333 27.8667V38L29.6667 35.3667L21.8 38ZM29.6667 29.3333C32.0889 29.3333 34.1389 28.4944 35.8167 26.8167C37.4944 25.1389 38.3333 23.0889 38.3333 20.6667C38.3333 18.2444 37.4944 16.1944 35.8167 14.5167C34.1389 12.8389 32.0889 12 29.6667 12C27.2444 12 25.1944 12.8389 23.5167 14.5167C21.8389 16.1944 21 18.2444 21 20.6667C21 23.0889 21.8389 25.1389 23.5167 26.8167C25.1944 28.4944 27.2444 29.3333 29.6667 29.3333ZM23.8 35.2L29.6667 33.3667L35.5333 35.2V29.5C34.6444 30.1444 33.6889 30.6111 32.6667 30.9C31.6444 31.1889 30.6444 31.3333 29.6667 31.3333C28.6889 31.3333 27.6889 31.1889 26.6667 30.9C25.6444 30.6111 24.6889 30.1444 23.8 29.5V35.2Z" fill="#333333" stroke="#333333" stroke-width="0.5"/>
</svg>
